<?xml version="1.0" encoding="UTF-8" standalone="no"?>
<svg
   aria-hidden="true"
   focusable="false"
   data-prefix="far"
   data-icon="file"
   class="svg-inline--fa fa-file fa-w-12"
   role="img"
   viewBox="0 0 384 512"
   version="1.1"
   id="svg1"
   sodipodi:docname="text.svg"
   inkscape:version="1.4.2 (2aeb623e1d, 2025-05-12)"
   width="100%"
   height="100%"
   xmlns:inkscape="http://www.inkscape.org/namespaces/inkscape"
   xmlns:sodipodi="http://sodipodi.sourceforge.net/DTD/sodipodi-0.dtd"
   xmlns="http://www.w3.org/2000/svg"
   xmlns:svg="http://www.w3.org/2000/svg">
  <defs
     id="defs1">
    <rect
       x="148.07843"
       y="212.07843"
       width="134.27451"
       height="179.45098"
       id="rect1" />
  </defs>
  <sodipodi:namedview
     id="namedview1"
     pagecolor="#ffffff"
     bordercolor="#000000"
     borderopacity="0.25"
     inkscape:showpageshadow="2"
     inkscape:pageopacity="0.0"
     inkscape:pagecheckerboard="0"
     inkscape:deskcolor="#d1d1d1"
     inkscape:zoom="1.59375"
     inkscape:cx="192.62745"
     inkscape:cy="255.68627"
     inkscape:window-width="1920"
     inkscape:window-height="1043"
     inkscape:window-x="0"
     inkscape:window-y="0"
     inkscape:window-maximized="1"
     inkscape:current-layer="svg1" />
  <path
     fill="currentColor"
     d="M 280.94838,176.92643 238.99915,134.9772 c -4.49992,-4.49992 -10.59981,-7.04988 -16.9497,-7.04988 H 120.00131 c -13.24976,0.05 -23.999567,10.79981 -23.999567,24.04957 v 207.99622 c 0,13.24976 10.749807,23.99957 23.999567,23.99957 h 143.99738 c 13.24976,0 23.99957,-10.74981 23.99957,-23.99957 V 193.92613 c 0,-6.34989 -2.54996,-12.49978 -7.04988,-16.9997 z m -18.89965,15.04973 H 223.99942 V 153.92685 Z M 120.00131,359.97311 V 151.97689 h 79.99854 v 51.99905 c 0,6.64988 5.34991,11.99979 11.99979,11.99979 h 51.99905 v 143.99738 z"
     id="path1"
     style="stroke-width:0.499991" />
  <path
     style="fill:#000000"
     d="m 133.64706,249.09804 c 0.61143,-1.9907 1.58613,-3.79971 2.5098,-5.64706 1.16497,-2.32993 0.86809,-2.5098 3.76471,-2.5098 1.04575,0 2.1663,-0.38839 3.13725,0 0.17212,0.0688 4.22145,2.88118 4.39216,3.13725 0.11602,0.17402 -0.14789,0.47956 0,0.62745 0.14789,0.14789 0.47956,-0.14789 0.62745,0 0.57287,0.57287 -0.28582,2.22399 0.62745,3.13726 0.73946,0.73946 1.70644,1.21288 2.50981,1.88235 0.45445,0.37871 0.92676,0.76269 1.2549,1.2549 0.23203,0.34805 -0.4183,1.2549 0,1.2549 0.15882,0 4.08495,-6.20785 5.01961,-5.64705 1.79345,1.07606 3.22615,2.68863 5.0196,3.7647 4.44804,2.66883 9.34446,5.08185 14.43138,5.64706 10.18323,1.13147 6.41263,-5.48395 12.54902,-7.52941 1.75464,-0.58488 4.01659,0.39453 5.64705,0.62745 2.99683,0.42812 6.48216,-0.7324 9.41177,0 0.6098,0.15245 1.81696,1.02395 2.5098,1.2549 2.33902,0.77967 4.48841,0.62745 6.90196,0.62745 1.57692,0 3.61787,0.2136 5.01961,-0.62745 0.40103,-0.24062 0.29676,-0.92421 0.62745,-1.2549 0.66987,-0.66987 14.13897,-0.1375 17.56863,-0.62745 0.85368,-0.12196 1.65411,-0.52049 2.5098,-0.62745 1.09028,-0.13629 3.13726,0.70876 3.13726,-0.62745"
     id="path7" />
  <path
     style="fill:#000000"
     d="m 136.78431,289.88235 c 1.83925,0.68972 8.91849,3.41507 10.66667,3.76471 2.26528,0.45305 4.61738,0.28476 6.90196,0.62745 3.94033,0.59105 9.03139,2.29117 13.17647,1.2549 3.37092,-0.84273 3.63935,-2.43459 6.90196,-4.39216 0.24441,-0.14664 4.93144,-1.07599 5.64706,-1.2549 2.77535,-0.69383 4.72173,0.79224 6.90196,1.88236 0.52912,0.26455 0.69369,1.06783 1.2549,1.2549 2.26802,0.756 4.46709,-1.60609 6.27451,-2.50981 0.37414,-0.18707 0.83661,0 1.25491,0 2.09321,0 4.32614,-0.34673 6.27451,0.62745 1.43191,0.71596 1.72854,1.41279 3.13725,1.88236 1.83381,0.61127 4.61269,-0.29509 6.27451,-0.62745 2.54732,-0.50947 9.45256,0.92078 11.29412,0 1.36691,-0.68346 2.83948,-1.99225 4.39215,-2.50981 0.79367,-0.26455 1.68162,0.11832 2.50981,0 2.20584,-0.31512 4.02008,-0.62745 6.27451,-0.62745"
     id="path8" />
  <path
     style="fill:#000000"
     d="m 141.80392,324.39216 c 0,0.8366 -0.8366,2.5098 0,2.5098 0.8366,0 0,-3.3464 0,-2.5098 0,0.89787 -0.58524,7.57162 0,8.15686 1.44017,1.44017 8.09976,-2.84059 10.03922,-4.39216 1.1987,-0.95896 2.27155,-1.21124 3.13725,-2.5098 0.11602,-0.17402 -0.14789,-0.47956 0,-0.62745 0.14789,-0.14789 0.46013,0.12549 0.62745,0 8.87262,-6.65447 -5.58253,2.84756 4.39216,-3.13726 1.17022,-0.70213 0.62745,-1.76161 0.62745,-1.2549 0,9.05332 12.55039,11.45013 18.82353,7.52941 2.415,-1.50937 3.91802,-4.70352 6.27451,-6.27451 0.55031,-0.36687 0.45343,1.24427 0.62745,1.88236 0.52207,1.91426 1.0613,3.84073 1.88235,5.64705 0.11324,0.24912 3.66068,4.34015 3.76471,4.39216 0.18707,0.0935 0.47956,-0.14789 0.62745,0 0.14789,0.14789 -0.18707,0.53392 0,0.62745 2.82186,1.41093 4.88053,-4.55494 6.27451,-5.01961 0.99209,-0.33069 2.0915,0 3.13726,0 3.11781,0 5.96477,0.47259 8.78431,1.88236 2.06891,1.03445 3.86492,2.79303 6.27451,3.13725 0.49605,0.0709 5.75946,0.51505 6.27451,0 0.33147,-0.33146 1.55088,-2.80578 1.88235,-3.13725 0.14789,-0.14789 0.44038,0.0935 0.62745,0 1.30856,-0.65428 3.58356,-2.75396 4.39216,-3.76471 0.33118,-0.41397 1.46305,-2.30015 1.88235,-2.5098 2.58935,-1.29468 5.68889,-1.49194 8.15687,-3.13726 1.24301,0.0626 0.29675,-0.9242 0.62745,-1.2549 0.11147,-0.11147 1.43682,-0.80937 1.88235,-1.2549"
     id="path9" />
</svg>
